<svg data-v-c2f48bed="" viewBox="0 0 24 24" fill="none" xmlns="http://www.w3.org/2000/svg"><g id="course_svg__online_course 1"><g id="course_svg__Layer 2"><path id="course_svg__Vector" d="M21 4.125H3C2.50272 4.125 2.02581 4.32254 1.67417 4.67417C1.32254 5.02581 1.125 5.50272 1.125 6V14.625C1.125 15.1223 1.32254 15.5992 1.67417 15.9508C2.02581 16.3025 2.50272 16.5 3 16.5H21C21.4973 16.5 21.9742 16.3025 22.3258 15.9508C22.6775 15.5992 22.875 15.1223 22.875 14.625V6C22.875 5.50272 22.6775 5.02581 22.3258 4.67417C21.9742 4.32254 21.4973 4.125 21 4.125ZM5.625 15.75V15.375C5.625 14.6788 5.90156 14.0111 6.39384 13.5188C6.88613 13.0266 7.55381 12.75 8.25 12.75H11.25C11.9462 12.75 12.6139 13.0266 13.1062 13.5188C13.5984 14.0111 13.875 14.6788 13.875 15.375V15.75H5.625ZM22.125 14.625C22.125 14.9234 22.0065 15.2095 21.7955 15.4205C21.5845 15.6315 21.2984 15.75 21 15.75H14.625V15.375C14.625 14.4799 14.2694 13.6215 13.6365 12.9885C13.0035 12.3556 12.1451 12 11.25 12H8.25C7.35489 12 6.49645 12.3556 5.86351 12.9885C5.23058 13.6215 4.875 14.4799 4.875 15.375V15.75H3C2.70163 15.75 2.41548 15.6315 2.2045 15.4205C1.99353 15.2095 1.875 14.9234 1.875 14.625V6C1.875 5.70163 1.99353 5.41548 2.2045 5.2045C2.41548 4.99353 2.70163 4.875 3 4.875H21C21.2984 4.875 21.5845 4.99353 21.7955 5.2045C22.0065 5.41548 22.125 5.70163 22.125 6V14.625Z" fill="currentColor"></path><path id="course_svg__Vector_2" d="M22.5 19.125H6.3225C6.23614 18.8072 6.04762 18.5267 5.78603 18.3267C5.52443 18.1267 5.20429 18.0184 4.875 18.0184C4.54571 18.0184 4.22557 18.1267 3.96397 18.3267C3.70238 18.5267 3.51386 18.8072 3.4275 19.125H1.5V19.875H3.4275C3.51386 20.1928 3.70238 20.4733 3.96397 20.6733C4.22557 20.8733 4.54571 20.9816 4.875 20.9816C5.20429 20.9816 5.52443 20.8733 5.78603 20.6733C6.04762 20.4733 6.23614 20.1928 6.3225 19.875H22.5V19.125ZM4.875 20.25C4.72666 20.25 4.58166 20.206 4.45832 20.1236C4.33499 20.0412 4.23886 19.9241 4.18209 19.787C4.12532 19.65 4.11047 19.4992 4.13941 19.3537C4.16835 19.2082 4.23978 19.0746 4.34467 18.9697C4.44956 18.8648 4.5832 18.7933 4.72868 18.7644C4.87417 18.7355 5.02497 18.7503 5.16201 18.8071C5.29906 18.8639 5.41619 18.96 5.4986 19.0833C5.58101 19.2067 5.625 19.3517 5.625 19.5C5.625 19.6989 5.54598 19.8897 5.40533 20.0303C5.26468 20.171 5.07391 20.25 4.875 20.25Z" fill="currentColor"></path><path id="course_svg__Vector_3" d="M9.75 6C9.23083 6 8.72331 6.15395 8.29163 6.44239C7.85995 6.73083 7.5235 7.1408 7.32482 7.62046C7.12614 8.10011 7.07415 8.62791 7.17544 9.13711C7.27673 9.64631 7.52673 10.114 7.89385 10.4812C8.26096 10.8483 8.72869 11.0983 9.23789 11.1996C9.74709 11.3008 10.2749 11.2489 10.7545 11.0502C11.2342 10.8515 11.6442 10.5151 11.9326 10.0834C12.221 9.65169 12.375 9.14418 12.375 8.625C12.375 8.28028 12.3071 7.93894 12.1752 7.62046C12.0433 7.30198 11.8499 7.0126 11.6062 6.76884C11.3624 6.52509 11.073 6.33173 10.7545 6.19982C10.4361 6.0679 10.0947 6 9.75 6ZM9.75 10.5C9.37916 10.5 9.01665 10.39 8.70831 10.184C8.39997 9.97798 8.15964 9.68514 8.01773 9.34253C7.87581 8.99992 7.83868 8.62292 7.91103 8.25921C7.98338 7.89549 8.16195 7.5614 8.42418 7.29917C8.6864 7.03695 9.02049 6.85837 9.38421 6.78603C9.74792 6.71368 10.1249 6.75081 10.4675 6.89273C10.8101 7.03464 11.103 7.27496 11.309 7.58331C11.515 7.89165 11.625 8.25416 11.625 8.625C11.625 9.12228 11.4275 9.59919 11.0758 9.95083C10.7242 10.3025 10.2473 10.5 9.75 10.5Z" fill="currentColor"></path><path id="course_svg__Vector_4" d="M15 8.25H19.5V9H15V8.25Z" fill="currentColor"></path><path id="course_svg__Vector_5" d="M15 11.25H19.5V12H15V11.25Z" fill="currentColor"></path><path id="course_svg__Vector_6" d="M15 9.75H18V10.5H15V9.75Z" fill="currentColor"></path></g></g></svg>