<svg data-v-2cdc6daf="" viewBox="0 0 40 40" fill="none" xmlns="http://www.w3.org/2000/svg"><path d="M39.3197 14.2975C39.3201 12.0736 38.661 9.89958 37.4257 8.05032C36.1905 6.20105 34.4345 4.75965 32.38 3.90842C30.3254 3.05719 28.0646 2.83437 25.8834 3.26813C23.7023 3.7019 21.6987 4.77277 20.1262 6.34531L19.9997 6.47175L19.8733 6.34531C18.8292 5.30127 17.5898 4.47309 16.2257 3.90806C14.8616 3.34303 13.3995 3.05221 11.923 3.05221C8.94111 3.05221 6.08132 4.23677 3.97279 6.34531C1.86425 8.45385 0.679688 11.3136 0.679688 14.2956C0.679688 17.2775 1.86425 20.1373 3.97279 22.2458L6.3227 24.5957C6.08335 25.0102 5.94832 25.4766 5.92926 25.9549C5.9102 26.4331 6.00767 26.9088 6.21328 27.341C6.41889 27.7732 6.72648 28.149 7.10955 28.4359C7.49263 28.7228 7.93971 28.9123 8.41229 28.9881C8.37633 29.1741 8.35806 29.363 8.35775 29.5524C8.35788 30.3369 8.66962 31.0893 9.2244 31.644C9.77918 32.1987 10.5316 32.5103 11.3161 32.5103C11.5831 32.5097 11.8488 32.4731 12.106 32.4017C12.2471 33.0639 12.6114 33.6576 13.1379 34.0833C13.6645 34.5091 14.3213 34.7409 14.9984 34.7402C15.2767 34.7357 15.5529 34.6921 15.8191 34.6108C15.9304 35.1303 16.1798 35.6101 16.5409 35.9998C16.902 36.3896 17.3615 36.6747 17.8711 36.8252C18.3806 36.9758 18.9213 36.9861 19.4362 36.8553C19.9512 36.7244 20.4213 36.4571 20.7971 36.0815L22.3893 34.4898C22.4191 34.46 22.4389 34.4243 22.4677 34.3936C23.2052 34.6434 24.0115 34.5923 24.7116 34.2514C25.4117 33.9105 25.9492 33.3074 26.2075 32.5727C26.7026 32.9013 27.2851 33.0731 27.8792 33.0658C28.4733 33.0586 29.0515 32.8726 29.5384 32.5322C30.0254 32.1917 30.3985 31.7125 30.6092 31.1569C30.8199 30.6014 30.8585 29.9953 30.7199 29.4175C31.1514 29.3345 31.5591 29.1564 31.9133 28.8962C32.2674 28.6361 32.5592 28.3003 32.7675 27.9133C32.9757 27.5263 33.0952 27.0978 33.1172 26.6588C33.1392 26.2199 33.0632 25.7816 32.8948 25.3757L36.0247 22.2458C37.0722 21.2047 37.9029 19.9661 38.4685 18.6018C39.0341 17.2374 39.3234 15.7745 39.3197 14.2975ZM7.66254 26.0704C7.66204 25.9098 7.69343 25.7506 7.75488 25.6022C7.81634 25.4537 7.90664 25.3189 8.02056 25.2056L12.1591 21.0671C12.3884 20.8378 12.6995 20.7089 13.0239 20.7089C13.3482 20.7089 13.6593 20.8378 13.8887 21.0671C14.118 21.2965 14.2469 21.6076 14.2469 21.9319C14.2469 22.2563 14.118 22.5674 13.8887 22.7967L9.74865 26.9362C9.51579 27.1583 9.20637 27.2821 8.8846 27.2821C8.56284 27.2821 8.25342 27.1583 8.02056 26.9362C7.90652 26.8228 7.81615 26.6879 7.75469 26.5392C7.69323 26.3906 7.66191 26.2313 7.66254 26.0704ZM10.4518 30.4167C10.2227 30.1873 10.094 29.8764 10.094 29.5522C10.094 29.228 10.2227 28.917 10.4518 28.6876L10.9749 28.1645L10.9774 28.162L13.913 25.2265C14.1424 24.9973 14.4536 24.8687 14.7779 24.8689C15.1022 24.8692 15.4131 24.9982 15.6423 25.2277C15.8715 25.4572 16.0001 25.7683 15.9998 26.0926C15.9996 26.4169 15.8705 26.7279 15.641 26.957L12.1814 30.4167C11.9519 30.6459 11.6409 30.7746 11.3166 30.7746C10.9923 30.7746 10.6813 30.6459 10.4518 30.4167ZM14.1336 32.6481C13.9046 32.4186 13.7759 32.1076 13.7759 31.7833C13.7759 31.4591 13.9046 31.1481 14.1336 30.9185L17.4961 27.5565C17.7254 27.3273 18.0365 27.1985 18.3608 27.1985C18.6851 27.1986 18.9961 27.3274 19.2254 27.5568C19.4547 27.7862 19.5835 28.0972 19.5835 28.4215C19.5834 28.7458 19.4545 29.0568 19.2252 29.2861L15.8632 32.6481C15.6335 32.8768 15.3225 33.0052 14.9984 33.0052C14.6743 33.0052 14.3633 32.8768 14.1336 32.6481ZM19.5698 34.8542C19.3405 35.0836 19.0295 35.2125 18.7052 35.2125C18.3809 35.2126 18.0698 35.0838 17.8405 34.8545C17.6111 34.6252 17.4822 34.3142 17.4822 33.9899C17.4821 33.6655 17.6109 33.3545 17.8402 33.1251L19.4329 31.5324C19.6624 31.3031 19.9735 31.1744 20.2978 31.1745C20.4585 31.1745 20.6175 31.2062 20.7658 31.2677C20.9142 31.3292 21.049 31.4193 21.1625 31.5329C21.2761 31.6465 21.3661 31.7814 21.4275 31.9298C21.489 32.0782 21.5205 32.2372 21.5205 32.3978C21.5205 32.5584 21.4888 32.7174 21.4273 32.8658C21.3658 33.0142 21.2756 33.149 21.162 33.2625L19.5698 34.8542ZM31.0283 27.378C30.7989 27.607 30.4879 27.7357 30.1638 27.7357C29.8396 27.7357 29.5287 27.607 29.2992 27.378H29.2968L25.4954 23.5762C25.3327 23.4135 25.1119 23.322 24.8818 23.322C24.6516 23.322 24.4309 23.4135 24.2682 23.5762C24.1054 23.739 24.014 23.9597 24.014 24.1899C24.014 24.42 24.1054 24.6407 24.2682 24.8035L28.7101 29.246C28.9334 29.4765 29.057 29.7856 29.0545 30.1064C29.0519 30.4273 28.9233 30.7344 28.6964 30.9613C28.4694 31.1882 28.1624 31.3168 27.8415 31.3194C27.5206 31.322 27.2116 31.1983 26.9811 30.9751L23.448 27.438C23.2852 27.2753 23.0645 27.1839 22.8344 27.1839C22.6042 27.1839 22.3835 27.2753 22.2207 27.438C22.058 27.6008 21.9665 27.8215 21.9665 28.0517C21.9665 28.2818 22.058 28.5026 22.2207 28.6653L24.283 30.7276C24.4658 30.9108 24.5857 31.1473 24.6254 31.403C24.665 31.6587 24.6224 31.9204 24.5037 32.1503C24.385 32.3802 24.1962 32.5664 23.9648 32.6821C23.7333 32.7978 23.4711 32.8369 23.2159 32.7939C23.2799 32.3433 23.2385 31.8839 23.0951 31.4519C22.9517 31.0199 22.7101 30.6271 22.3893 30.3041C22.0287 29.9477 21.5815 29.6914 21.0916 29.5603C21.3027 29.0573 21.3704 28.5057 21.2872 27.9665C21.204 27.4274 20.9731 26.9218 20.6201 26.5059C20.2671 26.09 19.8058 25.7799 19.2874 25.6101C18.769 25.4403 18.2137 25.4173 17.683 25.5438C17.5837 25.0172 17.3432 24.5274 16.9872 24.1268C16.6313 23.7262 16.1732 23.4298 15.6619 23.2693C15.9803 22.6416 16.0644 21.9209 15.8992 21.2367C15.7339 20.5526 15.3301 19.9497 14.7603 19.5366C14.1905 19.1234 13.492 18.927 12.7904 18.9826C12.0888 19.0381 11.4299 19.3421 10.9323 19.8399L7.47708 23.2956L5.20056 21.0185C3.43756 19.2314 2.45291 16.8195 2.46143 14.3092C2.46994 11.7988 3.47094 9.39367 5.24601 7.61853C7.02109 5.84339 9.42617 4.84231 11.9365 4.8337C14.4469 4.82509 16.8588 5.80966 18.646 7.57258L18.7725 7.69903L13.0442 13.4273C12.8816 13.5901 12.7902 13.8108 12.7902 14.0409C12.7902 14.271 12.8816 14.4918 13.0442 14.6546C13.9627 15.571 15.2073 16.0857 16.5049 16.0857C17.8024 16.0857 19.047 15.571 19.9655 14.6546L19.9997 14.6199L31.0283 25.6484C31.2572 25.878 31.3858 26.189 31.3858 26.5132C31.3858 26.8375 31.2572 27.1484 31.0283 27.378ZM31.8262 23.9918L21.227 13.3931L23.4584 11.1592C23.5441 11.0798 23.6128 10.9839 23.6606 10.8774C23.7083 10.7708 23.7341 10.6556 23.7362 10.5388C23.7384 10.4221 23.717 10.306 23.6733 10.1977C23.6295 10.0894 23.5644 9.99108 23.4817 9.90856C23.3991 9.82604 23.3006 9.76105 23.1922 9.71749C23.0839 9.67394 22.9678 9.6527 22.851 9.65507C22.7343 9.65744 22.6192 9.68335 22.5126 9.73127C22.4061 9.77918 22.3104 9.8481 22.2311 9.9339L18.7363 13.4288C18.2504 13.9138 17.6201 14.2276 16.9403 14.3229C16.2605 14.4183 15.5681 14.29 14.9677 13.9574L21.3529 7.57258C22.2358 6.68967 23.284 5.98931 24.4375 5.51147C25.591 5.03363 26.8274 4.78768 28.076 4.78766C29.3246 4.78764 30.561 5.03354 31.7145 5.51134C32.8681 5.98913 33.9162 6.68946 34.7991 7.57233C35.6821 8.45521 36.3824 9.50334 36.8603 10.6569C37.3381 11.8104 37.584 13.0468 37.5841 14.2954C37.5841 15.544 37.3382 16.7803 36.8604 17.9339C36.3826 19.0875 35.6823 20.1356 34.7994 21.0185L31.8262 23.9918Z" fill="#fff"></path></svg>