<svg data-v-216f9755="" viewBox="0 0 41 41" fill="none" xmlns="http://www.w3.org/2000/svg"><circle cx="20.5" cy="20.5" r="20" stroke="#D7DACD"></circle><path d="M22.2091 26.5286C22.2091 26.5286 20.9389 26.5286 18.3987 26.5286C18.3987 24.7 18.6228 23.3 19.0711 22.3286C19.5287 21.3476 20.472 20.2619 21.9009 19.0714C22.7601 18.3476 23.1897 17.519 23.1897 16.5857C23.1897 15.7952 22.9328 15.1429 22.4192 14.6286C21.9055 14.1143 21.2518 13.8571 20.458 13.8571C19.6828 13.8571 19.0805 14.0952 18.6509 14.5714C18.2306 15.0476 17.9551 15.7857 17.8244 16.7857H14C14.0654 15.8048 14.2148 14.9762 14.4483 14.3C14.6818 13.6143 15.0226 12.9905 15.4709 12.4286C16.0873 11.6476 16.8344 11.0476 17.7123 10.6286C18.5995 10.2095 19.5427 10 20.542 10C22.3912 10 23.9274 10.6381 25.1509 11.9143C26.3836 13.1905 27 14.7857 27 16.7C27 17.681 26.7899 18.5476 26.3696 19.3C25.9494 20.0524 25.1835 20.9286 24.0722 21.9286C23.2784 22.6143 22.7694 23.2381 22.5453 23.8C22.3211 24.3524 22.2091 25.2619 22.2091 26.5286ZM18.3987 32V28.2571H22.2091V32H18.3987Z" fill="#D7DACD"></path></svg>