<svg data-v-7b40e90b="" viewBox="0 0 28 28" fill="currentColor" xmlns="http://www.w3.org/2000/svg"><path d="M23.6732 20.5534C23.0303 19.9802 22.4675 19.3232 21.9999 18.6C21.4894 17.6017 21.1834 16.5115 21.0999 15.3934V12.1C21.1043 10.3438 20.4672 8.64633 19.3084 7.32666C18.1495 6.007 16.5486 5.15592 14.8065 4.93335V4.07335C14.8065 3.83731 14.7128 3.61093 14.5459 3.44402C14.379 3.27712 14.1526 3.18335 13.9165 3.18335C13.6805 3.18335 13.4541 3.27712 13.2872 3.44402C13.1203 3.61093 13.0265 3.83731 13.0265 4.07335V4.94668C11.3 5.1853 9.71852 6.04152 8.57489 7.35675C7.43126 8.67199 6.80302 10.3571 6.80654 12.1V15.3934C6.72304 16.5115 6.41705 17.6017 5.90654 18.6C5.44712 19.3216 4.89333 19.9785 4.25987 20.5534C4.18876 20.6158 4.13176 20.6927 4.09268 20.7789C4.0536 20.8651 4.03332 20.9587 4.0332 21.0534V21.96C4.0332 22.1368 4.10344 22.3064 4.22847 22.4314C4.35349 22.5564 4.52306 22.6267 4.69987 22.6267H23.2332C23.41 22.6267 23.5796 22.5564 23.7046 22.4314C23.8296 22.3064 23.8999 22.1368 23.8999 21.96V21.0534C23.8997 20.9587 23.8795 20.8651 23.8404 20.7789C23.8013 20.6927 23.7443 20.6158 23.6732 20.5534ZM5.41987 21.2934C6.04014 20.6942 6.58627 20.0227 7.04654 19.2934C7.68961 18.0877 8.06482 16.7574 8.14654 15.3934V12.1C8.1201 11.3187 8.25115 10.5401 8.5319 9.81046C8.81265 9.08086 9.23734 8.41521 9.7807 7.85315C10.3241 7.2911 10.975 6.84413 11.6947 6.53887C12.4144 6.2336 13.1881 6.07629 13.9699 6.07629C14.7516 6.07629 15.5254 6.2336 16.2451 6.53887C16.9648 6.84413 17.6157 7.2911 18.159 7.85315C18.7024 8.41521 19.1271 9.08086 19.4078 9.81046C19.6886 10.5401 19.8196 11.3187 19.7932 12.1V15.3934C19.8749 16.7574 20.2501 18.0877 20.8932 19.2934C21.3535 20.0227 21.8996 20.6942 22.5199 21.2934H5.41987Z" fill="currentColor"></path><path d="M13.9996 24.8535C14.4195 24.8438 14.8225 24.6859 15.1373 24.4078C15.4521 24.1296 15.6583 23.7491 15.7196 23.3335H12.2129C12.2759 23.7604 12.4918 24.1498 12.8204 24.4294C13.1491 24.709 13.5681 24.8597 13.9996 24.8535Z" fill="currentColor"></path></svg>