<svg data-v-c2f48bed="" fill="none" viewBox="0 0 24 24" xmlns="http://www.w3.org/2000/svg"><g clip-path="url(#video_svg__a)" fill="currentColor"><path d="m23.249 0.98554h-22.498c-0.2587 0-0.46856 0.20996-0.46856 0.4688v17.81c0 0.2588 0.20991 0.4688 0.46856 0.4688h22.498c0.2589 0 0.4685-0.21 0.4685-0.4688v-17.81c1e-4 -0.25884-0.2096-0.4688-0.4685-0.4688zm-0.4688 17.81h-21.56v-16.873h21.56l1e-4 16.873z"></path><path d="m6.5722 15.941 11.249-5.1555c0.1666-0.0765 0.2732-0.2429 0.2732-0.4262 0-0.1834-0.1066-0.3498-0.2732-0.426l-11.249-5.1558c-0.30928-0.1417-0.66403 0.08377-0.66403 0.42623v10.311c0 0.3425 0.35522 0.5677 0.66403 0.4262zm0.27329-10.007 9.6551 4.4254-9.6551 4.4251v-8.8505z"></path><path d="m21.375 21.14h-15.079c-0.19364-0.5455-0.71466-0.9374-1.3256-0.9374s-1.1318 0.3919-1.3255 0.9374h-1.018c-0.2589 0-0.46857 0.2099-0.46857 0.4688 0 0.2588 0.20967 0.4688 0.46857 0.4688h1.0179c0.19369 0.5455 0.71461 0.9373 1.3255 0.9373 0.61093 0 1.1319-0.3918 1.3256-0.9373h15.079c0.2588 0 0.4687-0.21 0.4687-0.4688 1e-4 -0.2589-0.2099-0.4688-0.4687-0.4688zm-16.404 0.9376c-0.25842 0-0.46856-0.2103-0.46856-0.4688s0.21014-0.4688 0.46856-0.4688c0.25847 0 0.46856 0.2103 0.46856 0.4688 0 0.2584-0.21014 0.4688-0.46856 0.4688z"></path></g><defs><clipPath id="video_svg__a"><rect width="24" height="24" fill="currentColor"></rect></clipPath></defs></svg>